<svg width="253" height="253" viewBox="0 0 253 253" fill="none" xmlns="http://www.w3.org/2000/svg">
<circle cx="128.308" cy="124.693" r="95.7786" fill="#D45E39"/>
<circle cx="128.309" cy="124.693" r="77.8214" fill="white" stroke="#232455" stroke-width="7"/>
<path fill-rule="evenodd" clip-rule="evenodd" d="M126.5 253C196.364 253 253 196.364 253 126.5C253 56.636 196.364 0 126.5 0C56.636 0 0 56.636 0 126.5C0 196.364 56.636 253 126.5 253ZM128.439 233.539C188.629 233.539 237.424 184.745 237.424 124.554C237.424 64.3635 188.629 15.5694 128.439 15.5694C68.2484 15.5694 19.4543 64.3635 19.4543 124.554C19.4543 184.745 68.2484 233.539 128.439 233.539Z" fill="url(#paint0_linear_75_2661)"/>
<path d="M119.896 158.531C121.75 158.531 123.178 157.771 124.178 156.25L153.428 111C153.782 110.458 154.042 109.938 154.209 109.438C154.375 108.938 154.459 108.438 154.459 107.938C154.459 106.708 154.053 105.698 153.24 104.906C152.428 104.115 151.386 103.719 150.115 103.719C149.24 103.719 148.511 103.896 147.928 104.25C147.344 104.583 146.782 105.167 146.24 106L119.771 147.938L106.209 130.75C105.23 129.521 104.021 128.906 102.584 128.906C101.313 128.906 100.261 129.312 99.4275 130.125C98.5942 130.938 98.1775 131.969 98.1775 133.219C98.1775 133.781 98.2713 134.323 98.4588 134.844C98.6671 135.365 99.0004 135.896 99.4588 136.438L115.646 156.375C116.813 157.812 118.23 158.531 119.896 158.531Z" fill="#232455"/>
<defs>
<linearGradient id="paint0_linear_75_2661" x1="34" y1="23" x2="209" y2="236" gradientUnits="userSpaceOnUse">
<stop stop-color="#D45E39"/>
<stop offset="0.333202" stop-color="#232455"/>
<stop offset="0.631853" stop-color="#D45E39"/>
<stop offset="1" stop-color="#232455"/>
</linearGradient>
</defs>
</svg>
