<?xml version="1.0" encoding="UTF-8"?>
<!--Generator: Apple Native CoreSVG 175.5-->
<!DOCTYPE svg
PUBLIC "-//W3C//DTD SVG 1.1//EN"
       "http://www.w3.org/Graphics/SVG/1.1/DTD/svg11.dtd">
<svg version="1.1" xmlns="http://www.w3.org/2000/svg" xmlns:xlink="http://www.w3.org/1999/xlink" width="20.0171" height="13.7109">
 <g>
  <rect height="13.7109" opacity="0" width="20.0171" x="0" y="0"/>
  <path d="M10.0122 13.136C11.3745 13.136 12.6196 12.8943 13.7549 12.5061L12.7954 11.5466C11.9238 11.8176 11.001 11.9788 10.0122 11.9788C5.18555 11.9788 1.28174 7.89185 1.28174 6.85913C1.28174 6.34644 2.63672 4.63989 4.79736 3.34351L3.88916 2.4353C1.4502 3.94409 0 5.9729 0 6.85913C0 8.35327 4.16748 13.136 10.0122 13.136ZM10.0122 0.582275C8.73779 0.582275 7.58057 0.802002 6.50391 1.16089L7.4707 2.12036C8.27637 1.87866 9.104 1.7395 10.0122 1.7395C14.8315 1.7395 18.7354 5.98755 18.7354 6.85913C18.7354 7.45239 17.4536 9.04907 15.4248 10.2942L16.3257 11.1951C18.6401 9.6936 20.0171 7.72339 20.0171 6.85913C20.0171 5.35767 15.9302 0.582275 10.0122 0.582275ZM10.0122 10.9607C10.6567 10.9607 11.2646 10.7996 11.8066 10.5359L6.31348 5.04272C6.04248 5.58472 5.88867 6.19995 5.88867 6.85913C5.896 9.09302 7.71973 10.9607 10.0122 10.9607ZM13.7695 8.46313C13.9966 7.97241 14.1211 7.4231 14.1211 6.85913C14.1211 4.56665 12.29 2.75757 10.0122 2.75757C9.43359 2.75757 8.8916 2.88208 8.40088 3.09448ZM15.7104 13.2019C15.9302 13.429 16.2817 13.4436 16.5088 13.2019C16.7505 12.9602 16.7285 12.6306 16.5088 12.4036L4.2627 0.164795C4.04297-0.0549316 3.68408-0.0549316 3.45703 0.164795C3.24463 0.377197 3.24463 0.750732 3.45703 0.963135Z" fill="#000000"/>
 </g>
</svg>
