<?xml version="1.0" encoding="UTF-8"?>
<!--Generator: Apple Native CoreSVG 175.5-->
<!DOCTYPE svg
PUBLIC "-//W3C//DTD SVG 1.1//EN"
       "http://www.w3.org/Graphics/SVG/1.1/DTD/svg11.dtd">
<svg version="1.1" xmlns="http://www.w3.org/2000/svg" xmlns:xlink="http://www.w3.org/1999/xlink" width="20.0171" height="12.561">
 <g>
  <rect height="12.561" opacity="0" width="20.0171" x="0" y="0"/>
  <path d="M10.0122 12.561C15.9302 12.561 20.0171 7.77832 20.0171 6.28418C20.0171 4.78271 15.9229 0.00732422 10.0122 0.00732422C4.1748 0.00732422 0 4.78271 0 6.28418C0 7.77832 4.16748 12.561 10.0122 12.561ZM10.0122 11.4038C5.18555 11.4038 1.28174 7.31689 1.28174 6.28418C1.28174 5.4126 5.18555 1.16455 10.0122 1.16455C14.8169 1.16455 18.7354 5.4126 18.7354 6.28418C18.7354 7.31689 14.8169 11.4038 10.0122 11.4038ZM10.0122 10.3857C12.29 10.3857 14.1211 8.51807 14.1211 6.28418C14.1211 3.9917 12.29 2.18262 10.0122 2.18262C7.71973 2.18262 5.88135 3.9917 5.88867 6.28418C5.90332 8.51807 7.71973 10.3857 10.0122 10.3857ZM10.0122 7.64648C9.25049 7.64648 8.63525 7.03125 8.63525 6.28418C8.63525 5.52979 9.25049 4.92188 10.0122 4.92188C10.7666 4.92188 11.3818 5.52979 11.3818 6.28418C11.3818 7.03125 10.7666 7.64648 10.0122 7.64648Z" fill="#000000"/>
 </g>
</svg>
